<svg width="60" height="60" viewBox="0 0 60 60" fill="none" xmlns="http://www.w3.org/2000/svg">
<g clip-path="url(#clip0_127_174)">
<path d="M33.7116 15.2218L35.0366 10.4612C35.3082 9.48536 36.6918 9.48536 36.9634 10.4612L38.2884 15.2218C39.4909 19.5394 42.7793 22.9143 46.9862 24.1484L51.7286 25.54C52.6866 25.8212 52.6864 27.1783 51.7284 27.4592L46.989 28.8487C42.7822 30.0828 39.4937 33.4577 38.2913 37.7753L36.9637 42.5406C36.6919 43.5162 35.3086 43.516 35.037 42.5404L33.7116 37.7782C32.5091 33.4606 29.2207 30.0857 25.0138 28.8516L20.2714 27.46C19.3134 27.1788 19.3136 25.8217 20.2716 25.5408L25.011 24.1513C29.2166 22.9176 32.5043 19.5443 33.7077 15.2286C33.7084 15.226 33.7097 15.2237 33.7116 15.2218V15.2218" fill="#666666"/>
<path d="M33.7116 15.2218L35.0366 10.4612C35.3082 9.48536 36.6918 9.48536 36.9634 10.4612L38.2884 15.2218C39.4909 19.5394 42.7793 22.9143 46.9862 24.1484L51.7286 25.54C52.6866 25.8212 52.6864 27.1783 51.7284 27.4592L46.989 28.8487C42.7822 30.0828 39.4937 33.4577 38.2913 37.7753L36.9637 42.5406C36.6919 43.5162 35.3086 43.516 35.037 42.5404L33.7116 37.7782C32.5091 33.4606 29.2207 30.0857 25.0138 28.8516L20.2714 27.46C19.3134 27.1788 19.3136 25.8217 20.2716 25.5408L25.011 24.1513C29.2166 22.9176 32.5043 19.5443 33.7077 15.2286C33.7084 15.226 33.7097 15.2237 33.7116 15.2218V15.2218" stroke="#666666" stroke-linecap="round" stroke-linejoin="round"/>
<path d="M7 25L6.51653 26.932C5.95233 29.1896 4.18959 30.9523 1.932 31.5165L0 32L1.932 32.4835C4.18959 33.0477 5.95233 34.8104 6.51653 37.068L7 39L7.48347 37.068C8.04736 34.8109 9.80926 33.0483 12.0661 32.4835L14 32L12.0661 31.5165C9.80926 30.9517 8.04736 29.1891 7.48347 26.932L7 25" fill="#333333"/>
<path d="M7 25L6.51653 26.932C5.95233 29.1896 4.18959 30.9523 1.932 31.5165L0 32L1.932 32.4835C4.18959 33.0477 5.95233 34.8104 6.51653 37.068L7 39L7.48347 37.068C8.04736 34.8109 9.80926 33.0483 12.0661 32.4835L14 32L12.0661 31.5165C9.80926 30.9517 8.04736 29.1891 7.48347 26.932L7 25" stroke="#333333" stroke-linecap="round" stroke-linejoin="round"/>
<path d="M11.5 14L11.1717 15.182C10.9851 15.8545 10.5454 16.3821 9.985 16.606L9 17L9.985 17.394C10.5454 17.6179 10.9851 18.1455 11.1717 18.818L11.5 20L11.8283 18.818C12.0149 18.1455 12.4546 17.6179 13.015 17.394L14 17L13.015 16.606C12.4546 16.3821 12.0149 15.8545 11.8283 15.182L11.5 14" fill="#4D4D4D"/>
<path d="M11.5 14L11.1717 15.182C10.9851 15.8545 10.5454 16.3821 9.985 16.606L9 17L9.985 17.394C10.5454 17.6179 10.9851 18.1455 11.1717 18.818L11.5 20L11.8283 18.818C12.0149 18.1455 12.4546 17.6179 13.015 17.394L14 17L13.015 16.606C12.4546 16.3821 12.0149 15.8545 11.8283 15.182L11.5 14" stroke="#4D4D4D" stroke-linecap="round" stroke-linejoin="round"/>
</g>
<defs>
<clipPath id="clip0_127_174">
<rect width="60" height="60" fill="white"/>
</clipPath>
</defs>
</svg>
